<svg width="221" height="160" viewBox="0 0 221 160" fill="none" xmlns="http://www.w3.org/2000/svg">
<path d="M64.5 96C29.1538 96 0.499985 124.654 0.499986 160L128.5 160C128.5 124.654 99.8462 96 64.5 96Z" fill="#DFFBE9"/>
<path d="M96.5643 59.8831C96.3403 59.6591 96.0843 59.5631 95.7963 59.5631C95.5083 59.5631 95.2203 59.6591 94.9963 59.8831C94.7723 60.1071 94.6763 60.3631 94.6763 60.6831C94.6763 61.0031 94.7723 61.2591 94.9963 61.4511C95.2203 61.6751 95.4763 61.8031 95.7963 61.8031C96.1163 61.8031 96.3723 61.7071 96.5643 61.4511C96.7883 61.2271 96.9163 60.9711 96.9163 60.6831C96.9163 60.3951 96.7883 60.0751 96.5643 59.8831ZM82.0363 61.9311C81.8123 62.1551 81.7163 62.4111 81.7163 62.7311C81.7163 63.0511 81.8123 63.3071 82.0363 63.4991C82.2603 63.7231 82.5163 63.8511 82.8363 63.8511C83.1563 63.8511 83.4123 63.7551 83.6363 63.4991C83.8603 63.2751 83.9563 63.0191 83.9563 62.7311C83.9563 62.4431 83.8603 62.1551 83.6363 61.9311C83.4123 61.7071 83.1563 61.6111 82.8363 61.6111C82.5483 61.6111 82.2603 61.7391 82.0363 61.9311Z" fill="#48475C"/>
<path d="M95.6684 129.515C91.7644 129.515 88.9484 128.683 87.0924 126.955C85.4924 125.451 84.6924 123.307 84.7244 120.587C84.7244 120.555 84.7244 120.491 84.7244 120.459C85.5564 115.723 88.6284 112.235 93.8444 110.123C95.6044 109.419 96.9164 109.035 97.8764 109.003C99.1244 108.779 100.02 108.907 100.66 109.419C101.172 109.835 101.46 110.475 101.46 111.275C101.492 112.811 100.34 114.059 98.0044 114.955C97.0444 115.307 96.9164 115.627 96.8844 115.659C96.8844 115.691 96.8524 115.723 96.9484 115.883C97.1404 116.235 97.5884 116.459 98.0364 116.363C102.26 115.499 106.1 114.155 109.492 112.331C109.524 112.299 109.556 112.299 109.588 112.267C110.932 111.787 111.924 111.819 112.596 112.395C113.14 112.843 113.364 113.579 113.332 114.571C114.324 114.699 114.996 115.051 115.38 115.659C115.764 116.299 115.796 117.067 115.444 118.059C116.084 118.251 116.756 118.603 116.98 119.339C117.268 120.331 116.596 121.387 114.836 122.827C111.348 125.963 105.876 128.139 98.5804 129.387C98.5484 129.387 98.5484 129.387 98.5164 129.387C97.4924 129.451 96.5324 129.515 95.6684 129.515ZM86.3244 120.651C86.2924 122.891 86.9004 124.555 88.1804 125.739C90.0684 127.499 93.4924 128.171 98.3244 127.755C105.3 126.571 110.484 124.491 113.748 121.579L113.78 121.547C115.22 120.395 115.38 119.851 115.412 119.755C115.348 119.691 115.156 119.563 114.484 119.467C111.06 121.899 107.38 123.627 103.54 124.619C103.124 124.715 102.676 124.459 102.58 124.043C102.484 123.627 102.74 123.179 103.156 123.083C106.836 122.123 110.388 120.459 113.684 118.091C114.228 116.971 114.1 116.587 114.036 116.491C113.972 116.395 113.748 116.139 112.724 116.139C109.556 118.443 105.78 120.139 101.492 121.163C101.076 121.259 100.628 121.003 100.532 120.555C100.436 120.139 100.692 119.691 101.14 119.595C105.172 118.635 108.724 117.067 111.732 114.891C111.828 114.123 111.732 113.739 111.604 113.611C111.476 113.483 111.028 113.451 110.196 113.739C106.708 115.627 102.708 117.035 98.3564 117.899C97.2044 118.123 96.0524 117.579 95.5084 116.587C95.1884 115.947 95.2524 115.403 95.3804 115.051C95.6364 114.379 96.3084 113.835 97.4284 113.419C99.0604 112.811 99.8604 112.075 99.8604 111.275C99.8604 110.955 99.7964 110.731 99.6364 110.635C99.5404 110.539 99.1564 110.347 98.1004 110.571C98.0364 110.571 98.0044 110.571 97.9404 110.571C97.4284 110.571 96.4364 110.763 94.4204 111.563C89.7484 113.483 87.0924 116.459 86.3244 120.651ZM208.404 113.707H156.244C155.796 113.707 155.444 113.355 155.444 112.907V98.8271H143.028V106.027C143.028 106.059 143.028 106.059 143.028 106.091C142.9 107.531 143.476 108.235 144.948 108.523H152.66C153.108 108.523 153.46 108.875 153.46 109.323V112.779C153.46 113.227 153.108 113.579 152.66 113.579H127.476C127.028 113.579 126.676 113.227 126.676 112.779V109.515C126.676 109.067 127.028 108.715 127.476 108.715H135.476C136.948 108.651 137.588 107.915 137.556 106.283V98.8591H113.364C111.86 98.8591 110.964 97.9631 110.964 96.4591V95.4671C103.38 100.363 94.5484 101.899 84.6924 100.011C84.5964 100.171 84.5004 100.331 84.4044 100.523C81.8444 105.003 78.0364 109.003 73.1084 112.427C72.7564 112.683 72.2444 112.587 71.9884 112.235C71.7324 111.883 71.8284 111.371 72.1804 111.115C76.9164 107.819 80.5644 104.011 82.9964 99.7551C83.1884 99.4351 83.3484 99.1151 83.5084 98.7951V98.7631C85.9404 93.9631 85.3644 90.4751 81.7484 88.1071L81.6204 88.0431C81.4284 87.9151 81.2044 87.7871 81.0124 87.6271C77.0124 84.4911 74.5164 77.1951 73.3964 65.3551C72.4684 55.8191 72.9804 48.7471 74.9324 44.3951C75.3164 43.5311 75.7644 42.7311 76.2764 42.0591C73.5244 39.2431 72.8204 35.9151 74.1324 32.1071C74.2924 31.6911 74.7404 31.4671 75.1564 31.6271C75.5724 31.7871 75.7964 32.2351 75.6364 32.6511C74.4524 36.0751 75.1884 38.9231 77.8764 41.4191C78.1964 41.7071 78.2284 42.2191 77.9404 42.5391C77.3324 43.2111 76.8204 44.0751 76.4044 45.0671C74.5804 49.1951 74.1324 55.9471 74.9964 65.2271C76.0524 76.4591 78.4204 83.5631 82.0044 86.4111C82.1644 86.5391 82.3244 86.6351 82.5164 86.7631L82.6444 86.8591C86.7404 89.5791 87.6684 93.5471 85.3964 98.6351C95.0604 100.363 103.636 98.6991 110.932 93.6431V61.3551C110.932 60.2031 111.444 59.4031 112.372 59.0831C112.276 58.6351 112.116 58.2511 111.956 57.9311C111.604 57.2271 110.964 56.8111 110.164 56.8111C109.332 56.8111 108.596 57.2271 108.212 57.9631C107.7 58.8911 107.508 60.1711 107.604 61.7391C107.636 62.1231 107.38 62.4431 107.028 62.5711C106.676 62.6671 106.292 62.5391 106.1 62.2191C103.316 57.3871 102.644 51.8831 104.084 45.8351C103.924 45.6111 103.764 45.4191 103.604 45.1951C100.532 41.4511 97.0124 40.0751 92.8204 40.9391C92.3724 41.0351 91.9564 40.7471 91.8604 40.3311C91.7644 39.8831 92.0524 39.4671 92.4684 39.3711C97.2364 38.3791 101.396 40.0111 104.82 44.2031C105.076 44.5231 105.332 44.8431 105.588 45.1951C105.716 45.3871 105.78 45.6431 105.716 45.8671C104.532 50.5711 104.692 54.8911 106.196 58.7951C106.324 58.2191 106.516 57.7071 106.772 57.2591C107.444 56.0431 108.724 55.2751 110.1 55.2751C110.132 55.2751 110.132 55.2751 110.164 55.2751C111.54 55.3071 112.724 56.0431 113.364 57.2911C113.62 57.8031 113.812 58.3791 113.972 59.0511H114.516C112.852 53.7711 110.964 49.0991 108.948 45.1311C108.404 44.0431 107.828 42.9551 107.22 41.9631C104.468 37.2911 100.308 35.5631 94.4204 36.6511C93.9724 36.7471 93.5564 36.4591 93.4924 36.0111C93.4284 35.5631 93.6844 35.1471 94.1324 35.0831C100.66 33.8671 105.524 35.9151 108.628 41.1631C109.236 42.1871 109.812 43.2751 110.388 44.3951C112.5 48.5871 114.484 53.4831 116.212 59.0511H122.004C121.876 58.1551 122.004 57.1951 122.42 56.2351C123.7 53.2591 127.636 50.0591 133.172 50.1231C141.204 50.2191 146.772 51.7871 152.372 55.5631C153.46 56.2031 153.972 56.9711 153.94 57.8031C153.94 58.2511 153.748 58.6671 153.428 59.0511H155.412V34.5711C155.412 34.1231 155.764 33.7711 156.212 33.7711H208.372C208.82 33.7711 209.172 34.1231 209.172 34.5711V60.5871C209.172 60.6191 209.172 60.6511 209.172 60.6511C209.172 60.6831 209.172 60.6831 209.172 60.7151V112.907C209.204 113.355 208.82 113.707 208.404 113.707ZM183.124 112.107H207.604V87.6271H183.124V112.107ZM157.044 112.107H181.524V87.6271H169.876V95.4991C170.964 95.6271 171.892 96.0751 172.692 96.8751C173.652 97.8351 174.132 98.9871 174.132 100.331C174.132 101.675 173.652 102.827 172.692 103.755C171.764 104.715 170.612 105.195 169.268 105.195C167.924 105.195 166.772 104.715 165.812 103.755C164.884 102.827 164.404 101.675 164.404 100.331C164.404 99.8191 164.468 99.3391 164.628 98.8911H157.044V112.107ZM128.276 111.979H151.86V110.123H144.884C144.852 110.123 144.788 110.123 144.756 110.123C142.452 109.739 141.268 108.267 141.428 106.027V98.8591H139.124V106.251C139.188 108.779 137.908 110.219 135.476 110.315H128.276V111.979ZM166.324 98.8591C166.1 99.3071 166.004 99.7871 166.004 100.299C166.004 101.195 166.324 101.963 166.964 102.603C167.604 103.243 168.372 103.563 169.268 103.563C170.164 103.563 170.932 103.243 171.572 102.603C172.212 101.963 172.532 101.195 172.532 100.299C172.532 99.4031 172.212 98.6351 171.572 97.9951C171.06 97.4831 170.484 97.1951 169.844 97.0991C169.62 98.2191 168.788 98.8591 167.508 98.8591H166.324ZM165.876 97.2591H167.476C168.116 97.2591 168.276 97.0991 168.276 96.4591V61.3551C168.276 61.1951 168.276 61.0671 168.244 60.9711C168.244 60.9391 168.244 60.9391 168.212 60.9071C168.212 60.9071 168.212 60.8751 168.18 60.8751C168.148 60.7471 168.052 60.5551 167.444 60.5551H136.116C135.668 60.8431 135.508 61.0351 135.476 61.0991C135.54 61.1631 135.732 61.4191 136.5 61.7391C137.268 62.0591 137.812 62.4111 138.132 62.8591H163.54C165.044 62.8591 165.94 63.7551 165.94 65.2591V92.5551C165.94 94.0591 165.044 94.9551 163.54 94.9551H117.428C115.924 94.9551 115.028 94.0591 115.028 92.5551V65.2591C115.028 63.7551 115.924 62.8591 117.428 62.8591H124.5C123.636 62.1231 122.964 61.3551 122.548 60.5871H115.668H115.636H113.364H113.332C112.724 60.5871 112.532 60.7791 112.532 61.3871V93.9951C112.532 93.9951 112.532 93.9951 112.532 94.0271V96.5231C112.532 97.1631 112.692 97.3231 113.332 97.3231H165.876C165.844 97.2591 165.876 97.2591 165.876 97.2591ZM117.428 64.4271C116.788 64.4271 116.628 64.5871 116.628 65.2271V92.5231C116.628 93.1631 116.788 93.3231 117.428 93.3231H163.604C164.244 93.3231 164.404 93.1631 164.404 92.5231V65.2271C164.404 64.5871 164.244 64.4271 163.604 64.4271H138.42C138.324 64.6831 138.164 64.9391 137.876 65.1951C137.172 65.9311 136.116 66.2831 135.06 66.1871C131.828 65.8671 129.204 65.2591 127.188 64.3951H117.428V64.4271ZM183.124 86.0271H207.604V61.5151H183.124V86.0271ZM169.876 86.0271H181.524V61.5151H169.876V68.9391C170.964 69.0671 171.892 69.5151 172.692 70.3151C173.652 71.2751 174.132 72.4271 174.132 73.7711C174.132 75.1151 173.652 76.2671 172.692 77.1951C171.892 77.9951 170.964 78.4751 169.876 78.6031V86.0271ZM169.876 70.5711V77.0031C170.516 76.8751 171.06 76.5871 171.54 76.1071C172.18 75.4671 172.5 74.6991 172.5 73.8031C172.5 72.9071 172.18 72.1391 171.54 71.4991C171.06 70.9551 170.516 70.6671 169.876 70.5711ZM127.668 62.9231C129.524 63.7551 132.052 64.3311 135.188 64.6511C135.764 64.7151 136.34 64.5231 136.724 64.1391C136.884 63.9791 136.916 63.8831 136.916 63.8831C136.884 63.8191 136.724 63.5631 135.924 63.2431C135.444 63.0511 133.972 62.4431 133.908 61.2591C133.812 60.1071 135.092 59.3391 135.508 59.1151L135.732 58.9871C135.86 58.9231 135.988 58.8911 136.116 58.8911H150.964C152.02 58.3151 152.308 57.8991 152.34 57.7071C152.34 57.6111 152.212 57.3231 151.668 56.9711C146.644 56.3951 141.556 56.3631 136.596 56.9391C136.148 57.0031 135.764 56.6831 135.7 56.2351C135.636 55.7871 135.956 55.4031 136.404 55.3391C140.404 54.8911 144.468 54.8271 148.532 55.0831C143.444 52.3951 138.612 51.7231 133.14 51.6591C129.748 51.6271 125.396 53.2271 123.86 56.8111C123.444 57.7711 123.412 58.6351 123.764 59.4671C124.052 60.2031 124.628 60.9391 125.492 61.6431C126.1 62.1231 126.836 62.5391 127.668 62.9231ZM183.124 59.7871H207.604V35.2751H183.124V59.7871ZM169.396 59.7871H181.492V35.2751H157.012V58.9551H167.444C168.5 58.9551 169.076 59.3711 169.396 59.7871ZM195.22 105.163C193.876 105.163 192.724 104.683 191.764 103.723C190.836 102.795 190.356 101.643 190.356 100.299C190.356 98.9551 190.836 97.8031 191.764 96.8431C192.724 95.8831 193.876 95.4351 195.22 95.4351C196.564 95.4351 197.716 95.9151 198.644 96.8431C199.604 97.8031 200.084 98.9551 200.084 100.299C200.084 101.643 199.604 102.795 198.644 103.723C197.684 104.683 196.532 105.163 195.22 105.163ZM195.22 97.0671C194.324 97.0671 193.556 97.3871 192.916 98.0271C192.276 98.6671 191.956 99.4351 191.956 100.331C191.956 101.227 192.276 101.995 192.916 102.635C193.556 103.275 194.324 103.595 195.22 103.595C196.116 103.595 196.884 103.275 197.524 102.635C198.164 101.995 198.484 101.227 198.484 100.331C198.484 99.4351 198.164 98.6671 197.524 98.0271C196.852 97.3551 196.116 97.0671 195.22 97.0671ZM90.2924 79.6911C89.9084 79.6911 89.5564 79.4031 89.4924 79.0191C89.4284 78.5711 89.7164 78.1871 90.1644 78.0911C94.7084 77.3551 97.9084 75.0191 99.9244 70.9231C100.116 70.5391 100.596 70.3791 100.98 70.5711C101.364 70.7631 101.524 71.2431 101.332 71.6271C99.0924 76.1391 95.4124 78.8591 90.3884 79.6591C90.3884 79.6591 90.3244 79.6911 90.2924 79.6911ZM195.22 78.6351C193.876 78.6351 192.724 78.1551 191.764 77.1951C190.836 76.2671 190.356 75.1151 190.356 73.7711C190.356 72.4271 190.836 71.2751 191.764 70.3151C192.724 69.3551 193.876 68.9071 195.22 68.9071C196.564 68.9071 197.716 69.3871 198.644 70.3151C199.604 71.2751 200.084 72.4271 200.084 73.7711C200.084 75.1151 199.604 76.2671 198.644 77.1951C197.684 78.1551 196.532 78.6351 195.22 78.6351ZM195.22 70.5071C194.324 70.5071 193.556 70.8271 192.916 71.4671C192.276 72.1071 191.956 72.8751 191.956 73.7711C191.956 74.6671 192.276 75.4351 192.916 76.0751C193.556 76.7151 194.324 77.0351 195.22 77.0351C196.116 77.0351 196.884 76.7151 197.524 76.0751C198.164 75.4351 198.484 74.6671 198.484 73.7711C198.484 72.8751 198.164 72.1071 197.524 71.4671C196.852 70.8271 196.116 70.5071 195.22 70.5071ZM88.7884 75.7231C88.6924 75.7231 88.5964 75.6911 88.5004 75.6591C84.4684 74.0271 82.4524 71.7231 82.4524 68.7791V68.7471C82.6444 66.0271 84.0844 62.8591 86.9004 59.1151C87.1564 58.7631 87.6684 58.6991 88.0204 58.9551C88.3724 59.2111 88.4364 59.7231 88.1804 60.0751C85.5884 63.5311 84.2124 66.4751 84.0204 68.8431C84.0204 71.0831 85.6524 72.8431 89.0444 74.2191C89.4604 74.3791 89.6524 74.8591 89.4924 75.2751C89.4284 75.5311 89.1084 75.7231 88.7884 75.7231ZM77.9084 56.9711C77.7804 56.9711 77.6844 56.9391 77.5564 56.9071C77.1724 56.7151 76.9804 56.2351 77.1724 55.8511C78.3564 53.3551 80.6284 52.2351 83.8924 52.5231C84.3404 52.5551 84.6604 52.9391 84.6284 53.3871C84.5964 53.8351 84.2124 54.1551 83.7644 54.1231C81.2044 53.8991 79.5084 54.6671 78.6124 56.5231C78.4844 56.8111 78.1964 56.9711 77.9084 56.9711ZM195.22 52.7791C193.876 52.7791 192.724 52.2991 191.764 51.3391C190.836 50.4111 190.356 49.2591 190.356 47.9151C190.356 46.5711 190.836 45.4191 191.764 44.4591C191.924 44.2991 192.116 44.1391 192.308 44.0111C193.14 43.3711 194.1 43.0511 195.22 43.0511C196.34 43.0511 197.3 43.3711 198.164 44.0431C198.324 44.1711 198.484 44.3311 198.644 44.4911C199.604 45.4511 200.084 46.6031 200.084 47.9471C200.084 49.2911 199.604 50.4431 198.644 51.3711C197.684 52.2991 196.532 52.7791 195.22 52.7791ZM195.22 44.6511C194.452 44.6511 193.812 44.8751 193.268 45.2911C193.14 45.3871 193.012 45.4831 192.916 45.5791C192.276 46.2191 191.956 46.9871 191.956 47.8831C191.956 48.7791 192.276 49.5471 192.916 50.1871C193.556 50.8271 194.324 51.1471 195.22 51.1471C196.116 51.1471 196.884 50.8271 197.524 50.1871C198.164 49.5471 198.484 48.7791 198.484 47.8831C198.484 46.9871 198.164 46.2191 197.524 45.5791C197.396 45.4511 197.3 45.3551 197.172 45.2911C196.596 44.8751 195.956 44.6511 195.22 44.6511ZM169.108 52.7791C167.764 52.7791 166.612 52.2991 165.652 51.3391C164.724 50.4111 164.244 49.2591 164.244 47.9151C164.244 46.5711 164.724 45.4191 165.652 44.4591C165.812 44.2991 166.004 44.1391 166.196 44.0111C167.028 43.3711 167.988 43.0511 169.108 43.0511C170.228 43.0511 171.188 43.3711 172.052 44.0431C172.212 44.1711 172.372 44.3311 172.532 44.4911C173.492 45.4511 173.972 46.6031 173.972 47.9471C173.972 49.2911 173.492 50.4431 172.532 51.3711C171.604 52.2991 170.452 52.7791 169.108 52.7791ZM169.108 44.6511C168.34 44.6511 167.7 44.8751 167.156 45.2911C167.028 45.3871 166.9 45.4831 166.804 45.5791C166.164 46.2191 165.844 46.9871 165.844 47.8831C165.844 48.7791 166.164 49.5471 166.804 50.1871C167.444 50.8271 168.212 51.1471 169.108 51.1471C170.004 51.1471 170.772 50.8271 171.412 50.1871C172.052 49.5471 172.372 48.7791 172.372 47.8831C172.372 46.9871 172.052 46.2191 171.412 45.5791C171.284 45.4511 171.188 45.3551 171.06 45.2911C170.516 44.8751 169.876 44.6511 169.108 44.6511ZM98.8364 52.6511C98.6764 52.6511 98.4844 52.5871 98.3564 52.4911C96.3084 50.8911 94.4204 50.8911 92.3724 52.4911C92.0204 52.7471 91.5084 52.6831 91.2524 52.3631C90.9964 52.0111 91.0604 51.4991 91.3804 51.2431C93.9724 49.2271 96.7244 49.2271 99.3484 51.2431C99.7004 51.4991 99.7644 52.0111 99.4764 52.3631C99.3164 52.5551 99.0604 52.6511 98.8364 52.6511ZM81.0444 40.0751C80.7564 40.0751 80.4684 39.9151 80.3404 39.6271C78.9644 36.8751 78.8044 34.0911 79.8924 31.3711C80.0524 30.9551 80.5324 30.7631 80.9484 30.9231C81.3644 31.0831 81.5564 31.5631 81.3964 31.9791C80.4684 34.2831 80.5964 36.5551 81.7804 38.9231C81.9724 39.3071 81.8124 39.7871 81.4284 40.0111C81.2684 40.0431 81.1404 40.0751 81.0444 40.0751ZM85.7164 38.2511C85.3324 38.2511 85.0124 37.9951 84.9484 37.6111C84.3404 34.6991 84.8844 32.2671 86.5484 30.3471C86.8364 30.0271 87.3484 29.9951 87.6684 30.2831C87.9884 30.5711 88.0204 31.0831 87.7324 31.4031C86.3884 32.9391 85.9724 34.8591 86.4844 37.2591C86.5804 37.7071 86.2924 38.1231 85.8764 38.2191C85.8444 38.2191 85.7804 38.2511 85.7164 38.2511ZM90.4524 37.1951C90.4204 37.1951 90.4204 37.1951 90.4524 37.1951C90.0044 37.1951 89.6524 36.8111 89.6524 36.3631C89.7164 33.9311 90.9644 32.1071 93.3964 30.9231C93.7804 30.7311 94.2604 30.8911 94.4524 31.3071C94.6444 31.6911 94.4844 32.1711 94.0684 32.3631C92.2124 33.2591 91.2844 34.5711 91.2524 36.3631C91.2204 36.8751 90.8684 37.1951 90.4524 37.1951Z" fill="#48475C"/>
<g clip-path="url(#clip0_486:2789)">
<path d="M136.604 85.1812C136.803 85.0923 137.005 85.0106 137.21 84.9339C137.44 84.8473 137.672 84.7659 137.908 84.695C138.201 84.6067 138.496 84.5268 138.796 84.4632C139.2 84.3773 139.609 84.3141 140.02 84.2741C139.787 85.0032 139.533 85.7251 139.257 86.439C139.269 86.5783 139.276 86.718 139.279 86.8577C139.846 86.7456 140.422 86.6892 141 86.689C141.589 86.689 142.164 86.7478 142.721 86.8577C142.724 86.718 142.731 86.5783 142.743 86.439C142.467 85.7252 142.213 85.0032 141.98 84.2741C142.392 84.3141 142.801 84.3775 143.204 84.4632C143.504 84.5268 143.799 84.6067 144.092 84.695C144.328 84.7659 144.56 84.8473 144.791 84.9339C144.995 85.0107 145.197 85.0924 145.397 85.1813C146.84 85.8228 148.125 86.7717 149.163 87.9617C151.818 85.6696 153.5 82.2823 153.5 78.5C153.5 71.5965 147.904 66 141 66C134.096 66 128.5 71.5965 128.5 78.5C128.5 82.2823 130.182 85.6695 132.837 87.9617C133.875 86.7717 135.16 85.8228 136.603 85.1812H136.604Z" fill="#A5DBE8"/>
<path d="M145.397 85.1813L146.173 87.8496L146.393 87.8599C146.536 87.8599 146.636 87.8975 146.636 88.0404C146.636 88.2779 146.649 88.5448 146.671 88.7778C146.865 88.942 147.1 89.1271 147.279 89.307C147.947 88.9177 148.578 88.4674 149.164 87.9617C148.125 86.7718 146.84 85.8229 145.397 85.1813ZM143.88 85.1546L144.791 84.9339C144.56 84.8473 144.328 84.7658 144.092 84.6949C143.799 84.6067 143.504 84.5268 143.204 84.4632C142.8 84.3772 142.392 84.3141 141.98 84.274C142.213 85.0031 142.467 85.7251 142.743 86.4389C142.732 86.5783 142.724 86.7179 142.721 86.8576C143.367 86.985 144.001 87.2062 144.588 87.4658L143.88 85.1545V85.1546Z" fill="#525252"/>
<path d="M134.722 89.307C134.867 89.3916 135.013 89.4741 135.162 89.5529C135.214 89.3024 135.298 88.9554 135.323 88.6976C135.13 88.8618 134.9 89.1271 134.721 89.307H134.722ZM144.573 87.4428C143.979 87.1798 143.358 86.9835 142.721 86.8576C142.154 86.7456 141.578 86.6891 141 86.689C140.411 86.689 139.836 86.7478 139.279 86.8576C138.634 86.9848 137.96 87.178 137.374 87.4374L137.311 87.8262H144.689L144.573 87.4428H144.573Z" fill="black"/>
<path d="M135.3 88.7717C135.323 88.5386 135.339 88.331 135.339 88.0934C135.339 87.9506 135.437 87.8591 135.58 87.8591L135.815 87.8509L136.603 85.1813C135.16 85.8228 133.875 86.7718 132.837 87.9617C133.422 88.4674 134.053 88.9178 134.721 89.307C134.9 89.127 135.086 88.9546 135.279 88.7904L135.3 88.7717Z" fill="#525252"/>
<path d="M146.767 89.2466C146.817 89.5005 146.829 89.5511 146.838 89.553C146.986 89.474 147.133 89.392 147.279 89.307C147.098 89.125 146.91 88.9508 146.715 88.7847L146.767 89.2466H146.767Z" fill="black"/>
<path d="M144.573 87.4429L144.689 87.8263H146.198L145.397 85.1813C145.197 85.0929 144.995 85.0104 144.791 84.934L143.879 85.1547L144.573 87.4429H144.573Z" fill="#AA9577"/>
<path d="M135.828 88.3604C135.836 88.3549 135.844 88.3493 135.852 88.3436H135.829C135.829 88.3492 135.828 88.3549 135.828 88.3604Z" fill="#C3B6A1"/>
<path d="M146.171 88.3436H146.148L146.172 88.3604C146.172 88.3549 146.171 88.3492 146.171 88.3436Z" fill="#AA9577"/>
<path d="M146.145 88.3051L140.989 88.3109L141 91C142.919 91 144.736 90.5665 146.361 89.7938C146.255 89.3278 146.244 88.8259 146.227 88.3374C146.219 88.3317 146.145 88.3051 146.145 88.3051Z" fill="#AA9577"/>
<path d="M140.992 88.3221C140.992 88.3221 135.808 88.3155 135.8 88.3211C135.783 88.8096 135.682 89.3893 135.639 89.7939C137.264 90.5665 139.081 91 141 91L141.003 88.3308L140.992 88.3221H140.992Z" fill="#C3B6A1"/>
<path d="M144.867 86.3281L144.869 86.3362L144.867 86.3281C144.867 86.3281 144.74 86.2276 144.579 86.0426C144.74 86.2276 144.867 86.3281 144.867 86.3281Z" fill="#AA9577"/>
<path d="M148.686 75.0183V75.0189V75.0183ZM149.189 78.6173L149.189 78.6135L149.189 78.6173Z" fill="white"/>
<path d="M149.175 78.4189C149.176 78.4222 149.177 78.4251 149.177 78.4285C149.177 78.4305 149.178 78.4324 149.178 78.4343V78.4351C149.184 78.4829 149.186 78.5328 149.188 78.583C149.188 78.5923 149.189 78.601 149.189 78.6102L149.189 78.6136L149.189 78.6173C149.189 78.6273 149.188 78.6366 149.187 78.6464C149.187 78.6949 149.184 78.7433 149.178 78.7915V78.7922L149.177 78.7993C149.177 78.8032 149.175 78.8065 149.175 78.8103C149.168 78.8601 149.159 78.9095 149.147 78.9583L149.147 78.9589V78.959L149.148 78.9571L149.149 78.9548V78.9549L149.476 78.6124L149.146 78.2672L149.147 78.2679C149.159 78.316 149.168 78.3666 149.175 78.4189Z" fill="#676969"/>
<path d="M149.175 78.8103C149.176 78.8039 149.177 78.7981 149.178 78.7916C149.184 78.7447 149.186 78.6958 149.187 78.6465C149.187 78.6354 149.189 78.6249 149.189 78.6136C149.189 78.6032 149.188 78.5934 149.187 78.5831C149.187 78.5337 149.184 78.4843 149.178 78.4352C149.177 78.4295 149.176 78.4245 149.175 78.419C149.168 78.3681 149.159 78.3177 149.146 78.268C149.142 78.2512 149.136 78.2363 149.131 78.2201C149.102 78.1222 149.061 78.0358 149.013 77.964C148.995 77.9367 148.975 77.9106 148.953 77.8859C148.934 77.8641 148.912 77.844 148.889 77.8258C148.88 77.8193 148.871 77.8147 148.862 77.809C148.835 77.7913 148.806 77.7772 148.776 77.7672C148.747 77.7576 148.716 77.7523 148.686 77.7517C148.655 77.7517 148.626 77.7582 148.596 77.7672C148.566 77.7772 148.537 77.7913 148.51 77.809C148.501 77.8147 148.492 77.8191 148.483 77.8257C148.443 77.8571 148.408 77.8943 148.379 77.936C148.372 77.9451 148.365 77.9546 148.359 77.9641C148.311 78.0359 148.27 78.1223 148.241 78.2202L148.237 78.2319C148.224 78.2768 148.214 78.324 148.205 78.3726C148.203 78.3874 148.199 78.4017 148.197 78.4169C148.19 78.4712 148.186 78.5278 148.185 78.5859C148.185 78.5939 148.183 78.6015 148.183 78.6095H148.185C148.185 79.0857 148.411 79.4716 148.688 79.4716C148.736 79.4716 148.782 79.4591 148.826 79.4377C148.852 79.4248 148.877 79.4091 148.9 79.3909C148.91 79.3833 148.918 79.3741 148.928 79.3655C148.95 79.3448 148.971 79.3213 148.991 79.2953C149.005 79.2771 149.018 79.2588 149.031 79.2384C149.039 79.2254 149.047 79.2113 149.054 79.1974C149.068 79.1715 149.081 79.1444 149.093 79.1157C149.098 79.1053 149.102 79.0953 149.107 79.0846C149.122 79.0447 149.135 79.0025 149.147 78.9582C149.159 78.9111 149.168 78.8614 149.175 78.8103V78.8103ZM148.704 78.4989C148.6 78.4989 148.515 78.3541 148.515 78.1756C148.515 77.9972 148.6 77.8524 148.704 77.8524C148.808 77.8524 148.893 77.9972 148.893 78.1756C148.893 78.3541 148.808 78.4989 148.704 78.4989Z" fill="black"/>
<path d="M148.704 77.8522C148.6 77.8522 148.516 77.997 148.516 78.1754C148.516 78.3539 148.6 78.4987 148.704 78.4987C148.809 78.4987 148.893 78.3539 148.893 78.1754C148.893 77.997 148.809 77.8522 148.704 77.8522Z" fill="white"/>
<path d="M148.241 78.22C148.271 78.1222 148.311 78.0358 148.359 77.964C148.365 77.9542 148.372 77.9452 148.379 77.9359C148.408 77.8941 148.443 77.8569 148.484 77.8256C148.492 77.8191 148.501 77.8146 148.51 77.8089C148.537 77.7911 148.566 77.777 148.597 77.767C148.626 77.7579 148.655 77.7516 148.686 77.7516C148.717 77.7516 148.747 77.7578 148.776 77.767C148.806 77.7771 148.835 77.7912 148.862 77.8089C148.871 77.8146 148.88 77.8192 148.889 77.8257C148.911 77.8429 148.933 77.8632 148.954 77.8858C148.975 77.9105 148.995 77.9366 149.014 77.9639C149.061 78.0357 149.102 78.1221 149.131 78.22V78.2201L148.686 76.1814L148.241 78.22H148.241H148.241Z" fill="#909393"/>
<path d="M142.787 78.5945C142.786 78.5535 142.784 78.513 142.779 78.4731C142.779 78.4726 142.779 78.472 142.779 78.4715C142.774 78.4325 142.768 78.3938 142.759 78.3555L142.759 78.3525C142.75 78.3152 142.74 78.2782 142.728 78.2418L142.727 78.2394C142.715 78.2033 142.701 78.1678 142.686 78.1331C142.686 78.1324 142.685 78.1317 142.685 78.1309C142.561 77.8548 142.336 77.6367 142.056 77.5215L142.052 77.5203C141.984 77.4925 141.914 77.4712 141.842 77.4567C141.84 77.4564 141.838 77.4563 141.836 77.4559C141.762 77.4412 141.686 77.4338 141.61 77.4337C141.534 77.4337 141.46 77.4415 141.388 77.4553L141.381 77.4565C141.309 77.4708 141.24 77.4917 141.174 77.5182L141.168 77.5203C141.101 77.5475 141.037 77.5809 140.976 77.62C140.915 77.6593 140.858 77.7039 140.806 77.7532L140.804 77.7573L140.8 77.7582C140.716 77.8383 140.644 77.9302 140.586 78.0311L140.584 78.0347C140.566 78.0657 140.551 78.0979 140.536 78.1307C140.534 78.1342 140.532 78.1375 140.531 78.141C140.518 78.1714 140.506 78.2028 140.495 78.2345C140.493 78.2407 140.49 78.2466 140.489 78.2528C140.479 78.2823 140.472 78.3128 140.464 78.3431C140.462 78.3519 140.46 78.3603 140.458 78.369C140.452 78.399 140.447 78.4298 140.443 78.4606C140.442 78.4701 140.44 78.4792 140.439 78.4887C140.427 78.6056 140.432 78.7237 140.455 78.8391C140.455 78.8405 140.455 78.8422 140.456 78.8438C140.47 78.9173 140.492 78.9882 140.52 79.0561C140.52 79.0571 140.521 79.0581 140.521 79.059C140.577 79.1952 140.659 79.3198 140.761 79.4262C140.841 79.5096 140.933 79.5813 141.035 79.6385L141.036 79.6394C141.068 79.6572 141.1 79.6731 141.134 79.688C141.136 79.6892 141.139 79.6908 141.142 79.6919C141.173 79.7054 141.205 79.717 141.237 79.7278C141.242 79.7297 141.248 79.732 141.253 79.7338C141.283 79.7433 141.313 79.7509 141.344 79.758C141.352 79.7599 141.36 79.7627 141.369 79.7644C141.399 79.7706 141.429 79.7748 141.46 79.7787C141.469 79.7799 141.479 79.782 141.488 79.7829C141.763 79.8119 142.039 79.743 142.269 79.5882C142.394 79.5035 142.502 79.3956 142.587 79.2702C142.718 79.0757 142.788 78.8463 142.788 78.6117C142.788 78.6088 142.788 78.6062 142.788 78.6036C142.787 78.6006 142.787 78.5977 142.787 78.5946L142.787 78.5945ZM141.61 78.4565C141.366 78.4565 141.168 78.2583 141.168 78.014C141.168 77.7696 141.366 77.5716 141.61 77.5716C141.855 77.5716 142.053 77.7698 142.053 78.0141C142.053 78.2585 141.855 78.4566 141.61 78.4565Z" fill="black"/>
<path d="M141.61 77.5717C141.366 77.5714 141.168 77.7694 141.168 78.0137C141.167 78.258 141.365 78.4562 141.61 78.4564H141.61C141.855 78.4562 142.053 78.258 142.052 78.0137C142.052 77.7697 141.854 77.5719 141.61 77.5717Z" fill="white"/>
<path d="M140.8 77.7582L140.805 77.7573L140.806 77.7532L141.617 75.2725V74.6919L141.617 74.6854C141.159 74.5906 140.693 74.5425 140.225 74.5419C140.067 74.5419 139.909 74.5486 139.753 74.5593C139.73 74.5608 139.707 74.5622 139.684 74.564C138.87 74.6258 138.068 74.838 137.326 75.1769C136.689 75.4676 136.098 75.8505 135.566 76.3045V76.3047L135.565 76.3054C135.423 76.4272 135.285 76.5542 135.152 76.686C135.127 76.7104 135.102 76.7346 135.077 76.7594C134.951 76.8863 134.829 77.0172 134.712 77.1519C134.686 77.1813 134.661 77.2113 134.636 77.2409C134.518 77.3799 134.404 77.5227 134.294 77.6689C134.285 77.6812 134.277 77.6941 134.268 77.7064C134.164 77.8482 134.064 77.9931 133.969 78.1408C133.95 78.1696 133.931 78.198 133.913 78.2271C133.836 78.3495 133.764 78.4752 133.693 78.6012H137.388L140.8 77.7582H140.8Z" fill="#BABCBC"/>
<path d="M143.919 77.4791C143.927 77.3823 143.933 77.2856 143.938 77.1888C143.945 77.0578 143.949 76.9265 143.952 76.7954C143.954 76.6935 143.954 76.5916 143.953 76.4897C143.953 76.4603 143.954 76.4309 143.953 76.4014C143.95 76.1384 143.941 75.8756 143.924 75.6131L143.922 75.6116L143.921 75.6097C143.823 75.5536 143.726 75.4977 143.628 75.4421L143.621 75.4382L143.545 75.395L143.543 75.3942L143.49 75.3645L143.48 75.3587C143.467 75.3515 143.454 75.3446 143.441 75.3377C143.271 75.2495 143.098 75.1681 142.922 75.0936C142.502 74.9162 141.936 74.7606 141.617 74.6855V75.2726L142.421 77.7573L142.422 77.7593C142.505 77.8385 142.576 77.9294 142.633 78.0296V78.0296C142.652 78.0624 142.669 78.0963 142.685 78.131C142.685 78.1318 142.685 78.1325 142.686 78.1332C142.701 78.1678 142.715 78.2032 142.727 78.2395L142.728 78.242C142.74 78.2782 142.75 78.3151 142.758 78.3527L142.759 78.3556C142.768 78.3936 142.774 78.4324 142.779 78.4716C142.779 78.4722 142.779 78.4728 142.779 78.4733C142.784 78.5131 142.786 78.5536 142.787 78.5946L142.79 78.6013H143.774C143.84 78.24 143.888 77.8756 143.917 77.5094C143.917 77.4994 143.919 77.4893 143.919 77.4793L143.919 77.4791Z" fill="#E2DDDB"/>
<path d="M145.207 76.6006C145.207 76.602 145.206 76.6036 145.205 76.6051L145.207 76.6008V76.6006Z" fill="#FBAF3F"/>
<path d="M140.806 77.7533C140.859 77.7037 140.916 77.659 140.977 77.6198C141.037 77.5808 141.102 77.5476 141.168 77.5203C141.17 77.5196 141.172 77.5191 141.174 77.5183C141.241 77.4914 141.31 77.4708 141.381 77.4566L141.388 77.4554C141.461 77.4412 141.536 77.4339 141.61 77.4338C141.688 77.4338 141.763 77.4416 141.836 77.456C141.838 77.4564 141.84 77.4564 141.842 77.4567C141.915 77.4714 141.987 77.4932 142.056 77.5216C142.191 77.5776 142.315 77.6581 142.422 77.7593L142.421 77.7573L141.617 75.2726L140.806 77.7533Z" fill="#909393"/>
<path d="M140.52 79.0561C140.492 78.9875 140.47 78.9164 140.456 78.8437C140.455 78.8422 140.455 78.8405 140.455 78.839C140.432 78.7237 140.427 78.6055 140.439 78.4886C140.44 78.4792 140.442 78.4701 140.443 78.4606C140.447 78.4297 140.452 78.3989 140.458 78.3689C140.46 78.3602 140.463 78.3518 140.464 78.343C140.472 78.3127 140.479 78.2823 140.489 78.2527C140.491 78.2466 140.493 78.2407 140.495 78.2344C140.506 78.2028 140.518 78.1714 140.531 78.141C140.532 78.1375 140.534 78.1342 140.536 78.1306C140.551 78.0979 140.567 78.0656 140.584 78.0346L140.586 78.031C140.644 77.9302 140.716 77.8383 140.8 77.7582L137.388 78.6011H137.381L140.761 79.426C140.659 79.3197 140.578 79.1951 140.521 79.0588C140.521 79.0579 140.521 79.057 140.52 79.056L140.52 79.0561Z" fill="#676969"/>
<path d="M148.197 78.4168C148.2 78.4016 148.203 78.3873 148.206 78.3725C148.214 78.3239 148.224 78.2766 148.237 78.2318C148.239 78.2267 148.239 78.221 148.241 78.2159L148.686 76.1773L148.686 75.0149C148.322 74.7144 147.933 74.5502 147.527 74.5502C147.015 74.5502 146.537 74.8331 146.179 75.1826C145.788 75.5651 145.486 76.0464 145.242 76.532C145.231 76.5544 145.219 76.5759 145.208 76.5983C145.283 76.6636 145.358 76.7297 145.431 76.7969C145.597 76.9495 145.761 77.1052 145.921 77.2638C145.996 77.3377 146.069 77.4131 146.143 77.4881C146.221 77.5677 146.299 77.6471 146.376 77.728C146.517 77.8758 146.656 78.0255 146.792 78.177C146.91 78.3065 147.026 78.437 147.141 78.5687L147.141 78.5689C147.16 78.589 147.174 78.6035 147.179 78.6093H148.183C148.183 78.6012 148.184 78.5938 148.185 78.5857C148.186 78.5276 148.19 78.471 148.197 78.4167L148.197 78.4168ZM145.208 76.6037L145.207 76.6007L145.205 76.604L145.21 76.6083C145.209 76.6068 145.209 76.6052 145.208 76.6037Z" fill="#E2DDDB"/>
<path d="M133.087 79.884L133.096 79.8616C133.231 79.5117 133.387 79.1702 133.562 78.8388C133.589 78.7873 133.616 78.7354 133.644 78.6844C133.659 78.6562 133.677 78.6292 133.693 78.601C133.764 78.475 133.836 78.3494 133.913 78.227C133.931 78.1978 133.95 78.1695 133.969 78.1407C134.064 77.9929 134.164 77.8481 134.268 77.7063C134.277 77.694 134.285 77.6811 134.294 77.6688C134.403 77.5226 134.518 77.3798 134.636 77.2408C134.661 77.2111 134.686 77.1812 134.712 77.1518C134.829 77.0171 134.951 76.8862 135.077 76.7593C135.102 76.7345 135.127 76.7102 135.152 76.6859C135.285 76.5541 135.423 76.4271 135.565 76.3053L135.566 76.3044C136.128 74.4232 137.941 73.2671 139.974 73.2671C140.793 73.2671 141.607 73.5029 142.304 73.9296C143.019 74.3672 143.507 74.7947 143.886 75.5421L143.892 75.5534C143.901 75.5723 143.912 75.5905 143.921 75.6096L143.922 75.6115L143.925 75.613C144.243 75.8098 144.546 76.0299 144.831 76.2716C144.927 76.3526 145.021 76.4358 145.113 76.5211C145.144 76.549 145.175 76.5756 145.205 76.604C145.206 76.6028 145.206 76.6017 145.207 76.6006C145.207 76.5998 145.208 76.599 145.208 76.5983C145.219 76.577 145.229 76.5555 145.239 76.5346C145.526 74.7263 146.436 73.7403 147.377 73.7403C148.086 73.7403 148.602 74.1632 148.991 75.3014L148.995 75.3137L148.996 75.3151C149.111 75.4403 149.218 75.5723 149.317 75.7104L149.317 75.7103C149.319 75.713 149.321 75.7155 149.323 75.7184L149.323 75.7183L149.323 75.7184C149.328 75.7349 149.333 75.7518 149.339 75.7684V75.7683L149.324 75.709C148.154 72.244 144.876 69.7493 141.016 69.7493C136.174 69.7493 132.249 73.6742 132.249 78.5161C132.249 79.4706 132.402 80.3895 132.685 81.2446L132.686 81.2395C132.786 80.7783 132.92 80.3252 133.088 79.8841L133.087 79.884Z" fill="#525252"/>
<path d="M149.455 78.6129L149.149 78.9549V78.9549L149.148 78.9571C149.137 79.0021 149.122 79.0441 149.107 79.0846C149.103 79.0953 149.098 79.1053 149.093 79.1157C149.082 79.1436 149.069 79.1709 149.054 79.1974C149.047 79.2113 149.039 79.2253 149.031 79.2384C149.018 79.2587 149.005 79.2771 148.991 79.2953C148.972 79.3204 148.951 79.3439 148.928 79.3655C148.918 79.374 148.91 79.3833 148.9 79.3909C148.877 79.4091 148.852 79.4248 148.826 79.4377C148.782 79.4591 148.736 79.4716 148.688 79.4716C148.411 79.4716 148.185 79.0857 148.185 78.6095H147.176L147.176 78.6103C147.366 78.8295 147.553 79.0513 147.736 79.2756C147.913 79.4912 148.087 79.7086 148.259 79.9278L148.285 79.9599C148.448 80.1681 148.609 80.3774 148.769 80.5878L148.816 80.6487C148.986 80.8726 149.155 81.0973 149.323 81.3228C149.618 80.4483 149.774 79.5325 149.783 78.6095L149.499 78.5988L149.455 78.6129L149.455 78.6129Z" fill="white"/>
<path d="M139.684 74.564C139.707 74.5622 139.73 74.5608 139.753 74.5593C139.91 74.5481 140.067 74.5423 140.225 74.5419C140.701 74.5419 141.165 74.5927 141.617 74.6854H141.617C141.936 74.7605 142.502 74.9161 142.922 75.0935C143.098 75.168 143.272 75.2493 143.441 75.3375L143.48 75.3585L143.49 75.3644C143.506 75.3732 143.523 75.3827 143.543 75.3941L143.545 75.3948L143.621 75.4381L143.628 75.442C143.736 75.5032 143.856 75.5719 143.901 75.5981L143.913 75.6048L143.921 75.6096C143.912 75.5905 143.901 75.5724 143.892 75.5534L143.886 75.5421C143.507 74.7948 142.924 74.1537 142.209 73.7162C141.511 73.2895 140.697 73.0537 139.879 73.0537C137.846 73.0537 136.128 74.4233 135.566 76.3045C136.098 75.8505 136.689 75.4676 137.326 75.1769C138.068 74.838 138.87 74.6258 139.684 74.564H139.684Z" fill="black"/>
<path d="M149.323 75.7182L149.323 75.7181L149.323 75.7182C149.321 75.7154 149.319 75.7128 149.317 75.7101L149.317 75.7103C149.218 75.5722 149.111 75.4402 148.996 75.3149L148.993 75.3115C148.944 75.2584 148.894 75.2068 148.842 75.1567C148.822 75.1382 148.802 75.1221 148.783 75.1044C148.751 75.0752 148.719 75.0451 148.686 75.0183V76.1813L149.132 78.2202V78.2201C149.136 78.2359 149.142 78.2507 149.147 78.2672L149.455 78.6128L149.458 78.6093H149.781C149.781 78.5795 149.783 78.5499 149.783 78.52V78.5195C149.783 77.5845 149.633 76.6556 149.339 75.7681V75.7682C149.333 75.7517 149.329 75.7347 149.323 75.7181L149.323 75.7182Z" fill="#BABCBC"/>
<path d="M146.18 75.1826C146.537 74.8331 147.015 74.5502 147.527 74.5502C147.933 74.5502 148.322 74.7144 148.686 75.0149L148.686 75.0184V75.019V75.0184C148.719 75.0452 148.751 75.0753 148.783 75.1045C148.802 75.1222 148.822 75.1383 148.841 75.1568C148.894 75.2068 148.944 75.2585 148.993 75.3116L148.996 75.315C148.996 75.3146 148.995 75.3142 148.995 75.3138L148.995 75.3137L148.991 75.3014C148.601 74.1632 147.973 73.4236 147.264 73.4236C146.323 73.4236 145.526 74.7263 145.239 76.5346L145.242 76.532C145.486 76.0464 145.789 75.5651 146.18 75.1826H146.18ZM144.908 86.2965C144.908 86.2965 144.781 86.1961 144.621 86.011C144.546 85.9255 144.476 85.8355 144.412 85.7418C144.391 85.7119 144.371 85.6808 144.351 85.6488C144.29 85.5526 144.241 85.4355 144.188 85.3198C144.126 85.1857 144.126 85.0966 144.09 84.9718C144.064 84.8799 144.043 84.7866 144.028 84.6922C144.003 84.5396 143.993 84.385 143.998 84.2305C144.001 84.1414 144.01 84.0491 144.024 83.9551C144.037 83.8618 144.055 83.7693 144.078 83.6779C144.149 83.3944 144.272 83.0924 144.463 82.7737L144.511 82.6645C144.574 82.5604 144.588 82.5649 144.647 82.4647C145.483 81.0532 145.935 79.9859 145.714 78.3426C145.69 78.1742 145.662 78.0064 145.631 77.8391C145.612 77.9604 145.592 78.0814 145.57 78.2023C145.562 78.2398 145.539 78.2805 145.531 78.306C145.167 79.3812 144.596 80.1721 143.773 81.0652C143.658 81.1891 143.542 81.3116 143.425 81.4328C143.215 81.6495 143.004 81.864 142.79 82.0764C142.701 82.165 142.61 82.2548 142.517 82.3464C142.433 82.4304 142.327 82.6099 142.201 82.7422C142.123 82.9599 142.035 83.2054 141.96 83.4637C141.927 83.4509 141.894 83.4394 141.86 83.4262C140.262 82.8079 139.191 81.9818 139.191 81.9818C139.191 81.9818 140.015 83.054 141.402 84.0604C141.53 84.1528 141.662 84.2385 141.798 84.3171C141.741 85.2229 142.141 86.0926 143.945 86.3519C144.25 86.3958 144.562 86.3937 144.876 86.3583C144.873 86.3489 144.894 86.3491 144.892 86.344C144.891 86.3387 144.909 86.3248 144.909 86.3248L144.908 86.2963L144.908 86.2965Z" fill="black"/>
<path d="M143.943 83.9647C145.545 84.2231 147.915 84.1807 150.375 83.0288C150.434 83.001 150.5 83.0741 150.559 83.045C150.559 83.045 148.877 84.7625 146.869 85.7334C146.811 85.7617 146.753 85.7919 146.693 85.8188C146.499 85.9075 146.302 85.9847 146.104 86.056C145.715 86.1957 145.321 86.3017 144.931 86.3506C144.913 86.3529 144.895 86.3563 144.877 86.3583C144.874 86.3509 144.872 86.3435 144.869 86.3361L144.867 86.328C144.867 86.328 144.74 86.2275 144.579 86.0425C144.504 85.957 144.434 85.867 144.37 85.7732C144.281 85.643 144.202 85.5055 144.136 85.3621C144.08 85.2409 144.033 85.1157 143.996 84.9874C143.928 84.7466 143.897 84.4964 143.905 84.2461C143.908 84.1539 143.916 84.062 143.93 83.9707L143.943 83.9646V83.9647Z" fill="#9E2154"/>
<path d="M142.796 82.1416C143.01 81.9293 143.221 81.7147 143.431 81.498C143.548 81.3767 143.664 81.2542 143.779 81.1304C144.602 80.2373 145.206 79.4015 145.569 78.3263C145.577 78.3008 145.586 78.2672 145.594 78.2294L145.598 78.212C145.607 78.1718 145.615 78.1272 145.623 78.0769C145.627 78.0422 145.735 77.9723 145.738 77.9398C145.647 77.4716 145.437 76.9794 145.208 76.6037C145.209 76.6052 145.209 76.6067 145.21 76.6082L145.205 76.604C145.175 76.5755 145.144 76.549 145.113 76.521C145.021 76.4357 144.927 76.3526 144.831 76.2716C144.546 76.0298 144.243 75.8097 143.925 75.6129C143.941 75.8759 143.951 76.1387 143.954 76.4012C143.954 76.4307 143.953 76.4601 143.953 76.4895C143.954 76.5914 143.954 76.6933 143.952 76.7952C143.95 76.9265 143.945 77.0576 143.938 77.1887C143.933 77.2856 143.927 77.3822 143.92 77.479C143.919 77.489 143.918 77.4991 143.917 77.5091C143.888 77.8753 143.841 78.2397 143.775 78.601L143.659 79.1478C143.418 80.1269 142.927 81.015 142.524 81.932C142.417 82.1751 142.315 82.421 142.226 82.6715L142.201 82.7423C142.307 82.6305 142.414 82.5203 142.523 82.4115C142.616 82.32 142.707 82.2301 142.796 82.1415L142.796 82.1416Z" fill="#FBAF3F"/>
<path d="M137.504 87.4075C138.091 87.1479 138.634 86.9849 139.279 86.8576C139.276 86.7179 139.269 86.5783 139.257 86.4389C139.533 85.7251 139.787 85.0031 140.02 84.274C139.609 84.3141 139.2 84.3772 138.796 84.4632C138.496 84.5268 138.201 84.6067 137.908 84.6949C137.672 84.7658 137.44 84.8473 137.209 84.9339L138.121 85.1546L137.388 87.456L137.504 87.4075H137.504Z" fill="#525252"/>
<path d="M148.769 80.5877C148.609 80.3773 148.448 80.1679 148.285 79.9598L148.259 79.9277C148.085 79.7059 147.909 79.4857 147.73 79.2675C147.548 79.0459 147.364 78.8269 147.176 78.6103C147.165 78.5965 147.153 78.5825 147.141 78.5689C146.986 78.3915 146.83 78.2162 146.671 78.043C146.573 77.9372 146.476 77.8322 146.377 77.7282C146.299 77.6476 146.222 77.5677 146.143 77.4883C146.07 77.4133 145.996 77.3379 145.921 77.264C145.761 77.1054 145.598 76.9498 145.432 76.7971C145.358 76.7299 145.283 76.6636 145.208 76.5984C145.208 76.5991 145.207 76.5999 145.207 76.6007C145.365 77.056 145.546 77.5169 145.637 77.9917C145.66 78.1153 145.68 78.2354 145.696 78.3528C145.916 79.996 145.39 81.069 144.553 82.4804C144.492 82.5835 144.431 82.6865 144.369 82.7894C144.178 83.1083 144.055 83.4102 143.984 83.6937C143.961 83.7851 143.943 83.8777 143.93 83.971C145.57 84.2356 148.036 84.2849 150.559 83.0452C150.559 83.0452 150.064 82.3179 149.32 81.3182C149.153 81.0943 148.985 80.8711 148.816 80.6488C148.801 80.6284 148.785 80.608 148.77 80.5878L148.769 80.5877Z" fill="#DF0067"/>
<path d="M137.3 87.8674L138.121 85.1547L137.209 84.934C137.005 85.0106 136.803 85.0924 136.603 85.1812L135.791 87.8674L136.698 87.8815L137.3 87.8674H137.3Z" fill="#AA9577"/>
<path d="M137.877 86.6938C137.957 86.7245 138.038 86.7523 138.12 86.7807C139.05 87.1073 140.03 87.2739 141.016 87.2736C142.138 87.2742 143.25 87.0588 144.29 86.639C144.344 86.6175 144.396 86.5939 144.449 86.5714C144.535 86.5349 144.62 86.4971 144.705 86.458C144.78 86.4228 144.856 86.388 144.93 86.3507C144.912 86.3531 144.895 86.3565 144.877 86.3585C144.562 86.3939 144.25 86.396 143.945 86.3521C142.141 86.0927 141.741 85.223 141.799 84.3173C141.662 84.2387 141.53 84.1531 141.402 84.0606C140.015 83.0542 139.191 81.982 139.191 81.982C139.191 81.982 140.262 82.8081 141.86 83.4263C141.894 83.4396 141.926 83.4511 141.96 83.4638C142.035 83.2056 142.123 82.9601 142.201 82.7424L142.226 82.6717C142.315 82.4212 142.417 82.1753 142.524 81.9321C142.927 81.0151 143.417 80.127 143.659 79.148L143.775 78.6011H142.788L142.788 78.6013L142.788 78.6032L142.788 78.6034C142.788 78.606 142.788 78.6086 142.788 78.6115C142.788 78.8462 142.718 79.0755 142.587 79.27C142.459 79.4591 142.279 79.6073 142.069 79.6965C141.886 79.774 141.686 79.8037 141.488 79.7828C141.479 79.7818 141.47 79.7797 141.46 79.7786C141.429 79.7746 141.399 79.7704 141.369 79.7642C141.361 79.7624 141.353 79.7597 141.344 79.7578C141.314 79.7507 141.283 79.7432 141.253 79.7336C141.248 79.7318 141.242 79.7295 141.237 79.7276C141.205 79.7168 141.173 79.7052 141.142 79.6917C141.139 79.6906 141.137 79.6891 141.134 79.6878C141.101 79.6731 141.068 79.6568 141.036 79.6392L141.035 79.6383C140.934 79.5813 140.841 79.5098 140.761 79.426L137.381 78.6011H133.693C133.677 78.6292 133.66 78.6562 133.644 78.6844C133.616 78.7355 133.589 78.7873 133.562 78.8388C133.472 79.01 133.386 79.184 133.306 79.3605C133.232 79.5255 133.162 79.6926 133.097 79.8616L133.088 79.884C132.92 80.3251 132.786 80.7782 132.686 81.2394C133.267 83.0105 134.397 84.5324 135.874 85.605C135.917 85.6361 135.962 85.6639 136.005 85.6944C136.255 85.8698 136.514 86.0321 136.781 86.1806C137.134 86.377 137.5 86.5484 137.877 86.6937L137.877 86.6938Z" fill="white"/>
<path d="M146.721 88.7904C146.697 88.556 146.685 88.3205 146.684 88.085C146.684 87.9422 146.568 87.8263 146.426 87.8263H135.575C135.432 87.8263 135.316 87.9421 135.316 88.085C135.316 88.3225 135.302 88.5574 135.279 88.7904C135.254 89.0465 135.215 89.301 135.162 89.5529C135.32 89.6361 135.478 89.7171 135.64 89.7938C135.747 89.3231 135.811 88.8431 135.828 88.3604C135.829 88.3549 135.829 88.3492 135.829 88.3436H146.171C146.171 88.3492 146.172 88.3549 146.172 88.3604C146.19 88.8431 146.253 89.3231 146.361 89.7938C146.522 89.7169 146.681 89.6366 146.838 89.5529C146.785 89.3011 146.746 89.0465 146.721 88.7904Z" fill="#8A7460"/>
</g>
<defs>
<clipPath id="clip0_486:2789">
<rect width="26" height="25" fill="white" transform="translate(128 66)"/>
</clipPath>
</defs>
</svg>
